<svg width="60" height="46" viewBox="0 0 60 46" fill="none" xmlns="http://www.w3.org/2000/svg">
<path d="M24.336 4.30335C23.8709 3.01055 23.4016 1.70708 23.393 1.69002C23.169 1.18868 22.6506 0.872948 22.1045 0.928415C21.7589 0.956148 13.5818 1.66015 8.34237 5.87348C5.60317 8.40362 0.133301 23.1961 0.133301 35.9855C0.133301 36.2116 0.190901 36.4314 0.303968 36.6276C4.0821 43.2623 14.3818 44.9988 16.7285 45.0735C16.7434 45.0756 16.7562 45.0756 16.769 45.0756C17.1829 45.0756 17.5712 44.8772 17.8186 44.5423L20.3573 41.1034C16.1632 40.4655 15.4058 39.6335 15.2288 39.5034C14.2816 38.8058 13.5818 37.8287 14.4309 36.5956C15.0837 35.6377 16.4533 35.322 17.5029 35.8617C18.5781 36.3631 21.456 37.9759 30 37.9332C38.4842 37.9076 42.209 36.1305 42.2624 36.0921C43.6874 35.45 44.7989 35.7146 45.4922 36.666C46.3178 37.961 45.729 38.8378 44.7861 39.5332C44.609 39.6634 44.1802 40.0282 39.6746 41.0948L42.1813 44.5402C42.4266 44.8772 42.817 45.0735 43.2309 45.0735C43.2458 45.0735 43.2586 45.0735 43.2714 45.0714C45.6202 44.9967 55.92 43.2601 59.696 36.6255C59.809 36.4292 59.8666 36.2095 59.8666 35.9834C59.8666 23.1962 54.3968 8.40362 51.5893 5.81802C46.4181 1.66228 38.241 0.958282 37.8954 0.928415C37.3493 0.881482 36.8309 1.19082 36.6069 1.69002C36.5984 1.70708 36.1418 3.03188 35.7002 4.30975C35.7002 4.30975 32.2208 3.79988 30 3.79988C27.7792 3.79988 24.336 4.30335 24.336 4.30335ZM21.4666 31.5332C19.1093 31.5332 17.2 28.6895 17.2 25.178C17.2 21.6665 19.1093 18.8228 21.4666 18.8228C23.8325 18.4708 25.6821 21.6665 25.7333 25.178C25.7333 28.6895 23.824 31.5332 21.4666 31.5332ZM38.5333 31.5332C36.176 31.5332 34.2666 28.6703 34.2666 25.1396C34.2666 21.609 36.176 18.746 38.5333 18.746C40.8906 18.746 42.8 21.609 42.8 25.1396C42.8 28.6703 40.8906 31.5332 38.5333 31.5332Z" fill="white"/>
<path d="M24.336 4.30335C23.8709 3.01055 23.4016 1.70708 23.393 1.69002C23.169 1.18868 22.6506 0.872948 22.1045 0.928415C21.7589 0.956148 13.5818 1.66015 8.34237 5.87348C5.60317 8.40362 0.133301 23.1961 0.133301 35.9855C0.133301 36.2116 0.190901 36.4314 0.303968 36.6276C4.0821 43.2623 14.3818 44.9988 16.7285 45.0735C16.7434 45.0756 16.7562 45.0756 16.769 45.0756C17.1829 45.0756 17.5712 44.8772 17.8186 44.5423L20.3573 41.1034C16.1632 40.4655 15.4058 39.6335 15.2288 39.5034C14.2816 38.8058 13.5818 37.8287 14.4309 36.5956C15.0837 35.6377 16.4533 35.322 17.5029 35.8617C18.5781 36.3631 21.456 37.9759 30 37.9332C38.4842 37.9076 42.209 36.1305 42.2624 36.0921C43.6874 35.45 44.7989 35.7146 45.4922 36.666C46.3178 37.961 45.729 38.8378 44.7861 39.5332C44.609 39.6634 44.1802 40.0282 39.6746 41.0948L42.1813 44.5402C42.4266 44.8772 42.817 45.0735 43.2309 45.0735C43.2458 45.0735 43.2586 45.0735 43.2714 45.0714C45.6202 44.9967 55.92 43.2601 59.696 36.6255C59.809 36.4292 59.8666 36.2095 59.8666 35.9834C59.8666 23.1962 54.3968 8.40362 51.5893 5.81802C46.4181 1.66228 38.241 0.958282 37.8954 0.928415C37.3493 0.881482 36.8309 1.19082 36.6069 1.69002C36.5984 1.70708 36.1418 3.03188 35.7002 4.30975C35.7002 4.30975 32.2208 3.79988 30 3.79988C27.7792 3.79988 24.336 4.30335 24.336 4.30335ZM21.4666 31.5332C19.1093 31.5332 17.2 28.6895 17.2 25.178C17.2 21.6665 19.1093 18.8228 21.4666 18.8228C23.8325 18.4708 25.6821 21.6665 25.7333 25.178C25.7333 28.6895 23.824 31.5332 21.4666 31.5332ZM38.5333 31.5332C36.176 31.5332 34.2666 28.6703 34.2666 25.1396C34.2666 21.609 36.176 18.746 38.5333 18.746C40.8906 18.746 42.8 21.609 42.8 25.1396C42.8 28.6703 40.8906 31.5332 38.5333 31.5332Z" fill="#FFEDBC"/>
</svg>
