<svg width="20" height="20" viewBox="0 0 20 20" fill="none" xmlns="http://www.w3.org/2000/svg">
<path d="M8.23002 4.15722C8.08469 3.75322 7.93802 3.34589 7.93535 3.34055C7.86535 3.18389 7.70335 3.08522 7.53269 3.10255C7.42469 3.11122 4.86935 3.33122 3.23202 4.64789C2.37602 5.43855 0.666687 10.0612 0.666687 14.0579C0.666687 14.1286 0.684687 14.1972 0.72002 14.2586C1.90069 16.3319 5.11935 16.8746 5.85269 16.8979C5.85735 16.8986 5.86135 16.8986 5.86535 16.8986C5.99469 16.8986 6.11602 16.8366 6.19335 16.7319L6.98669 15.6572C5.67602 15.4579 5.43935 15.1979 5.38402 15.1572C5.08802 14.9392 4.86935 14.6339 5.13469 14.2486C5.33869 13.9492 5.76669 13.8506 6.09469 14.0192C6.43069 14.1759 7.33002 14.6799 10 14.6666C12.6514 14.6586 13.8154 14.1032 13.832 14.0912C14.2774 13.8906 14.6247 13.9732 14.8414 14.2706C15.0994 14.6752 14.9154 14.9492 14.6207 15.1666C14.5654 15.2072 14.4314 15.3212 13.0234 15.6546L13.8067 16.7312C13.8834 16.8366 14.0054 16.8979 14.1347 16.8979C14.1394 16.8979 14.1434 16.8979 14.1474 16.8972C14.8814 16.8739 18.1 16.3312 19.28 14.2579C19.3154 14.1966 19.3334 14.1279 19.3334 14.0572C19.3334 10.0612 17.624 5.43855 16.7467 4.63055C15.1307 3.33189 12.5754 3.11189 12.4674 3.10255C12.2967 3.08789 12.1347 3.18455 12.0647 3.34055C12.062 3.34589 11.9194 3.75989 11.7814 4.15922C11.7814 4.15922 10.694 3.99989 10 3.99989C9.30602 3.99989 8.23002 4.15722 8.23002 4.15722ZM7.33335 12.6666C6.59669 12.6666 6.00002 11.7779 6.00002 10.6806C6.00002 9.58322 6.59669 8.69455 7.33335 8.69455C8.07269 8.58455 8.65069 9.58322 8.66669 10.6806C8.66669 11.7779 8.07002 12.6666 7.33335 12.6666ZM12.6667 12.6666C11.93 12.6666 11.3334 11.7719 11.3334 10.6686C11.3334 9.56522 11.93 8.67055 12.6667 8.67055C13.4034 8.67055 14 9.56522 14 10.6686C14 11.7719 13.4034 12.6666 12.6667 12.6666Z" fill="white" fill-opacity="0.5"/>
</svg>
