<svg width="52" height="52" viewBox="0 0 52 52" fill="none" xmlns="http://www.w3.org/2000/svg">
<path d="M15.3291 0.399902C7.09654 0.399902 0.399902 7.10274 0.399902 15.3374V36.6707C0.399902 44.9033 7.10274 51.5999 15.3374 51.5999H36.6707C44.9033 51.5999 51.5999 44.8971 51.5999 36.6624V15.3291C51.5999 7.09654 44.8971 0.399902 36.6624 0.399902H15.3291ZM40.9332 8.93324C42.1108 8.93324 43.0666 9.88897 43.0666 11.0666C43.0666 12.2442 42.1108 13.1999 40.9332 13.1999C39.7556 13.1999 38.7999 12.2442 38.7999 11.0666C38.7999 9.88897 39.7556 8.93324 40.9332 8.93324ZM25.9999 13.1999C33.0591 13.1999 38.7999 18.9407 38.7999 25.9999C38.7999 33.0591 33.0591 38.7999 25.9999 38.7999C18.9407 38.7999 13.1999 33.0591 13.1999 25.9999C13.1999 18.9407 18.9407 13.1999 25.9999 13.1999ZM25.9999 17.4666C23.7367 17.4666 21.5662 18.3656 19.9659 19.9659C18.3656 21.5662 17.4666 23.7367 17.4666 25.9999C17.4666 28.2631 18.3656 30.4336 19.9659 32.0339C21.5662 33.6342 23.7367 34.5332 25.9999 34.5332C28.2631 34.5332 30.4336 33.6342 32.0339 32.0339C33.6342 30.4336 34.5332 28.2631 34.5332 25.9999C34.5332 23.7367 33.6342 21.5662 32.0339 19.9659C30.4336 18.3656 28.2631 17.4666 25.9999 17.4666V17.4666Z" fill="white"/>
<path d="M15.3291 0.399902C7.09654 0.399902 0.399902 7.10274 0.399902 15.3374V36.6707C0.399902 44.9033 7.10274 51.5999 15.3374 51.5999H36.6707C44.9033 51.5999 51.5999 44.8971 51.5999 36.6624V15.3291C51.5999 7.09654 44.8971 0.399902 36.6624 0.399902H15.3291ZM40.9332 8.93324C42.1108 8.93324 43.0666 9.88897 43.0666 11.0666C43.0666 12.2442 42.1108 13.1999 40.9332 13.1999C39.7556 13.1999 38.7999 12.2442 38.7999 11.0666C38.7999 9.88897 39.7556 8.93324 40.9332 8.93324ZM25.9999 13.1999C33.0591 13.1999 38.7999 18.9407 38.7999 25.9999C38.7999 33.0591 33.0591 38.7999 25.9999 38.7999C18.9407 38.7999 13.1999 33.0591 13.1999 25.9999C13.1999 18.9407 18.9407 13.1999 25.9999 13.1999ZM25.9999 17.4666C23.7367 17.4666 21.5662 18.3656 19.9659 19.9659C18.3656 21.5662 17.4666 23.7367 17.4666 25.9999C17.4666 28.2631 18.3656 30.4336 19.9659 32.0339C21.5662 33.6342 23.7367 34.5332 25.9999 34.5332C28.2631 34.5332 30.4336 33.6342 32.0339 32.0339C33.6342 30.4336 34.5332 28.2631 34.5332 25.9999C34.5332 23.7367 33.6342 21.5662 32.0339 19.9659C30.4336 18.3656 28.2631 17.4666 25.9999 17.4666V17.4666Z" fill="#FFEDBC"/>
</svg>
