<svg width="64" height="38" viewBox="0 0 64 38" fill="none" xmlns="http://www.w3.org/2000/svg">
<path d="M18.1333 0.93335C15.752 0.93335 13.394 1.40238 11.194 2.31367C8.99397 3.22495 6.99497 4.56064 5.31113 6.24448C3.6273 7.92832 2.2916 9.92732 1.38032 12.1274C0.469033 14.3274 0 16.6854 0 19.0667C0 21.448 0.469033 23.806 1.38032 26.006C2.2916 28.206 3.6273 30.2051 5.31113 31.8889C6.99497 33.5727 8.99397 34.9084 11.194 35.8197C13.394 36.731 15.752 37.2 18.1333 37.2C20.5146 37.2 22.8726 36.731 25.0727 35.8197C27.2727 34.9084 29.2717 33.5727 30.9555 31.8889C32.6394 30.2051 33.9751 28.206 34.8864 26.006C35.7976 23.806 36.2667 21.448 36.2667 19.0667C36.2667 16.6854 35.7976 14.3274 34.8864 12.1274C33.9751 9.92732 32.6394 7.92832 30.9555 6.24448C29.2717 4.56064 27.2727 3.22495 25.0727 2.31367C22.8726 1.40238 20.5146 0.93335 18.1333 0.93335V0.93335ZM46.9333 3.06668C45.8127 3.06668 44.7031 3.48054 43.6678 4.28461C42.6325 5.08869 41.6918 6.26724 40.8994 7.75297C40.107 9.23871 39.4784 11.0025 39.0496 12.9437C38.6207 14.885 38.4 16.9655 38.4 19.0667C38.4 21.1678 38.6207 23.2484 39.0496 25.1896C39.4784 27.1308 40.107 28.8947 40.8994 30.3804C41.6918 31.8661 42.6325 33.0447 43.6678 33.8488C44.7031 34.6528 45.8127 35.0667 46.9333 35.0667C48.0539 35.0667 49.1636 34.6528 50.1989 33.8488C51.2342 33.0447 52.1749 31.8661 52.9673 30.3804C53.7597 28.8947 54.3883 27.1308 54.8171 25.1896C55.2459 23.2484 55.4667 21.1678 55.4667 19.0667C55.4667 16.9655 55.2459 14.885 54.8171 12.9437C54.3883 11.0025 53.7597 9.23871 52.9673 7.75297C52.1749 6.26724 51.2342 5.08869 50.1989 4.28461C49.1636 3.48054 48.0539 3.06668 46.9333 3.06668V3.06668ZM60.8 5.20002C59.9513 5.20002 59.1374 6.66096 58.5373 9.26147C57.9371 11.862 57.6 15.389 57.6 19.0667C57.6 22.7444 57.9371 26.2714 58.5373 28.8719C59.1374 31.4724 59.9513 32.9334 60.8 32.9334C61.6487 32.9334 62.4626 31.4724 63.0627 28.8719C63.6629 26.2714 64 22.7444 64 19.0667C64 15.389 63.6629 11.862 63.0627 9.26147C62.4626 6.66096 61.6487 5.20002 60.8 5.20002V5.20002Z" fill="white"/>
<path d="M18.1333 0.93335C15.752 0.93335 13.394 1.40238 11.194 2.31367C8.99397 3.22495 6.99497 4.56064 5.31113 6.24448C3.6273 7.92832 2.2916 9.92732 1.38032 12.1274C0.469033 14.3274 0 16.6854 0 19.0667C0 21.448 0.469033 23.806 1.38032 26.006C2.2916 28.206 3.6273 30.2051 5.31113 31.8889C6.99497 33.5727 8.99397 34.9084 11.194 35.8197C13.394 36.731 15.752 37.2 18.1333 37.2C20.5146 37.2 22.8726 36.731 25.0727 35.8197C27.2727 34.9084 29.2717 33.5727 30.9555 31.8889C32.6394 30.2051 33.9751 28.206 34.8864 26.006C35.7976 23.806 36.2667 21.448 36.2667 19.0667C36.2667 16.6854 35.7976 14.3274 34.8864 12.1274C33.9751 9.92732 32.6394 7.92832 30.9555 6.24448C29.2717 4.56064 27.2727 3.22495 25.0727 2.31367C22.8726 1.40238 20.5146 0.93335 18.1333 0.93335V0.93335ZM46.9333 3.06668C45.8127 3.06668 44.7031 3.48054 43.6678 4.28461C42.6325 5.08869 41.6918 6.26724 40.8994 7.75297C40.107 9.23871 39.4784 11.0025 39.0496 12.9437C38.6207 14.885 38.4 16.9655 38.4 19.0667C38.4 21.1678 38.6207 23.2484 39.0496 25.1896C39.4784 27.1308 40.107 28.8947 40.8994 30.3804C41.6918 31.8661 42.6325 33.0447 43.6678 33.8488C44.7031 34.6528 45.8127 35.0667 46.9333 35.0667C48.0539 35.0667 49.1636 34.6528 50.1989 33.8488C51.2342 33.0447 52.1749 31.8661 52.9673 30.3804C53.7597 28.8947 54.3883 27.1308 54.8171 25.1896C55.2459 23.2484 55.4667 21.1678 55.4667 19.0667C55.4667 16.9655 55.2459 14.885 54.8171 12.9437C54.3883 11.0025 53.7597 9.23871 52.9673 7.75297C52.1749 6.26724 51.2342 5.08869 50.1989 4.28461C49.1636 3.48054 48.0539 3.06668 46.9333 3.06668V3.06668ZM60.8 5.20002C59.9513 5.20002 59.1374 6.66096 58.5373 9.26147C57.9371 11.862 57.6 15.389 57.6 19.0667C57.6 22.7444 57.9371 26.2714 58.5373 28.8719C59.1374 31.4724 59.9513 32.9334 60.8 32.9334C61.6487 32.9334 62.4626 31.4724 63.0627 28.8719C63.6629 26.2714 64 22.7444 64 19.0667C64 15.389 63.6629 11.862 63.0627 9.26147C62.4626 6.66096 61.6487 5.20002 60.8 5.20002V5.20002Z" fill="#FFEDBC"/>
</svg>
