<svg width="24" height="24" viewBox="0 0 24 24" fill="none" xmlns="http://www.w3.org/2000/svg">
<g clip-path="url(#clip0_0_217)">
<path d="M6.8 5.59998C5.90701 5.59998 5.02277 5.77586 4.19775 6.11759C3.37274 6.45933 2.62311 6.96021 1.99167 7.59165C1.36024 8.22309 0.859351 8.97271 0.517619 9.79773C0.175887 10.6227 0 11.507 0 12.4C0 13.293 0.175887 14.1772 0.517619 15.0022C0.859351 15.8272 1.36024 16.5769 1.99167 17.2083C2.62311 17.8397 3.37274 18.3406 4.19775 18.6824C5.02277 19.0241 5.90701 19.2 6.8 19.2C7.69299 19.2 8.57723 19.0241 9.40225 18.6824C10.2273 18.3406 10.9769 17.8397 11.6083 17.2083C12.2398 16.5769 12.7406 15.8272 13.0824 15.0022C13.4241 14.1772 13.6 13.293 13.6 12.4C13.6 11.507 13.4241 10.6227 13.0824 9.79773C12.7406 8.97271 12.2398 8.22309 11.6083 7.59165C10.9769 6.96021 10.2273 6.45933 9.40225 6.11759C8.57723 5.77586 7.69299 5.59998 6.8 5.59998ZM17.6 6.39998C17.1798 6.39998 16.7637 6.55517 16.3754 6.8567C15.9872 7.15823 15.6344 7.60018 15.3373 8.15734C15.0401 8.71449 14.8044 9.37592 14.6436 10.1039C14.4828 10.8318 14.4 11.612 14.4 12.4C14.4 13.1879 14.4828 13.9681 14.6436 14.6961C14.8044 15.424 15.0401 16.0855 15.3373 16.6426C15.6344 17.1998 15.9872 17.6417 16.3754 17.9433C16.7637 18.2448 17.1798 18.4 17.6 18.4C18.0202 18.4 18.4363 18.2448 18.8246 17.9433C19.2128 17.6417 19.5656 17.1998 19.8627 16.6426C20.1599 16.0855 20.3956 15.424 20.5564 14.6961C20.7172 13.9681 20.8 13.1879 20.8 12.4C20.8 11.612 20.7172 10.8318 20.5564 10.1039C20.3956 9.37592 20.1599 8.71449 19.8627 8.15734C19.5656 7.60018 19.2128 7.15823 18.8246 6.8567C18.4363 6.55517 18.0202 6.39998 17.6 6.39998ZM22.8 7.19998C22.4817 7.19998 22.1765 7.74783 21.9515 8.72302C21.7264 9.69821 21.6 11.0209 21.6 12.4C21.6 13.7791 21.7264 15.1017 21.9515 16.0769C22.1765 17.0521 22.4817 17.6 22.8 17.6C23.1183 17.6 23.4235 17.0521 23.6485 16.0769C23.8736 15.1017 24 13.7791 24 12.4C24 11.0209 23.8736 9.69821 23.6485 8.72302C23.4235 7.74783 23.1183 7.19998 22.8 7.19998Z" fill="white"/>
</g>
<defs>
<clipPath id="clip0_0_217">
<rect width="24" height="24" fill="white"/>
</clipPath>
</defs>
</svg>
