<svg width="52" height="48" viewBox="0 0 52 48" fill="none" xmlns="http://www.w3.org/2000/svg">
<path d="M47.6624 0.499885C46.9689 0.530479 46.3229 0.732467 45.7541 0.962385C45.2213 1.17671 43.1855 2.04983 39.9791 3.42489C36.7698 4.80114 32.5204 6.62555 27.9874 8.57489C18.9214 12.4736 8.72888 16.8621 3.50824 19.1082C3.31192 19.1926 2.62693 19.4115 1.8999 19.9791C1.17287 20.5466 0.399902 21.7227 0.399902 23.0332C0.399902 24.0899 0.903513 25.1398 1.5374 25.7666C2.17129 26.3933 2.84203 26.703 3.41657 26.9374C5.50119 27.788 11.9665 30.4337 13.1874 30.9332C13.6171 32.2495 15.9572 39.4079 16.4999 41.1624C16.8576 42.3202 17.1982 43.0453 17.6416 43.6207C17.8633 43.9085 18.121 44.1606 18.4332 44.3582C18.5581 44.4372 18.6949 44.498 18.8332 44.5541L18.8416 44.5582C18.8734 44.571 18.9009 44.5927 18.9332 44.6041C18.9942 44.6254 19.035 44.6279 19.1166 44.6457C19.4415 44.7507 19.7696 44.8166 20.0624 44.8166C21.3107 44.8166 22.0749 44.1291 22.0749 44.1291L22.1207 44.0957L28.5416 38.5416L36.3291 45.9082C36.4387 46.0633 37.4613 47.4666 39.7166 47.4666C41.0557 47.4666 42.1179 46.7946 42.7999 46.0791C43.4819 45.3635 43.9068 44.6117 44.0874 43.6666V43.6624C44.2563 42.7692 51.4332 5.92489 51.4332 5.92489L51.4207 5.97489C51.6308 5.01592 51.6859 4.12285 51.4541 3.24155C51.2222 2.36025 50.6114 1.51645 49.8541 1.06239C49.0968 0.60842 48.3559 0.469291 47.6624 0.499885ZM47.2624 4.95822C47.2522 5.02048 47.2701 4.98917 47.2541 5.06239L47.2499 5.08739L47.2457 5.11239C47.2457 5.11239 40.1577 41.4855 39.8957 42.8707C39.9149 42.7661 39.8273 42.9741 39.7374 43.0999C39.6104 43.0123 39.3499 42.8999 39.3499 42.8999L39.3082 42.8541L28.6707 32.7916L21.1499 39.2916L23.3874 30.3332C23.3874 30.3332 37.3739 15.8551 38.2166 15.0124C38.895 14.3383 39.0374 14.1033 39.0374 13.8707C39.0374 13.5593 38.8751 13.3332 38.5124 13.3332C38.186 13.3332 37.7471 13.6506 37.5124 13.7999C34.4551 15.7488 21.0331 23.5714 15.0166 27.0707C14.0604 26.6794 7.41785 23.9604 5.16657 23.0416C5.18361 23.0341 5.178 23.0367 5.19574 23.0291C10.4178 20.7824 20.606 16.3938 29.6707 12.4957C34.2031 10.5467 38.4557 8.72086 41.6624 7.34572C44.8197 5.99175 47.0135 5.05992 47.2624 4.95822Z" fill="white"/>
<path d="M47.6624 0.499885C46.9689 0.530479 46.3229 0.732467 45.7541 0.962385C45.2213 1.17671 43.1855 2.04983 39.9791 3.42489C36.7698 4.80114 32.5204 6.62555 27.9874 8.57489C18.9214 12.4736 8.72888 16.8621 3.50824 19.1082C3.31192 19.1926 2.62693 19.4115 1.8999 19.9791C1.17287 20.5466 0.399902 21.7227 0.399902 23.0332C0.399902 24.0899 0.903513 25.1398 1.5374 25.7666C2.17129 26.3933 2.84203 26.703 3.41657 26.9374C5.50119 27.788 11.9665 30.4337 13.1874 30.9332C13.6171 32.2495 15.9572 39.4079 16.4999 41.1624C16.8576 42.3202 17.1982 43.0453 17.6416 43.6207C17.8633 43.9085 18.121 44.1606 18.4332 44.3582C18.5581 44.4372 18.6949 44.498 18.8332 44.5541L18.8416 44.5582C18.8734 44.571 18.9009 44.5927 18.9332 44.6041C18.9942 44.6254 19.035 44.6279 19.1166 44.6457C19.4415 44.7507 19.7696 44.8166 20.0624 44.8166C21.3107 44.8166 22.0749 44.1291 22.0749 44.1291L22.1207 44.0957L28.5416 38.5416L36.3291 45.9082C36.4387 46.0633 37.4613 47.4666 39.7166 47.4666C41.0557 47.4666 42.1179 46.7946 42.7999 46.0791C43.4819 45.3635 43.9068 44.6117 44.0874 43.6666V43.6624C44.2563 42.7692 51.4332 5.92489 51.4332 5.92489L51.4207 5.97489C51.6308 5.01592 51.6859 4.12285 51.4541 3.24155C51.2222 2.36025 50.6114 1.51645 49.8541 1.06239C49.0968 0.60842 48.3559 0.469291 47.6624 0.499885ZM47.2624 4.95822C47.2522 5.02048 47.2701 4.98917 47.2541 5.06239L47.2499 5.08739L47.2457 5.11239C47.2457 5.11239 40.1577 41.4855 39.8957 42.8707C39.9149 42.7661 39.8273 42.9741 39.7374 43.0999C39.6104 43.0123 39.3499 42.8999 39.3499 42.8999L39.3082 42.8541L28.6707 32.7916L21.1499 39.2916L23.3874 30.3332C23.3874 30.3332 37.3739 15.8551 38.2166 15.0124C38.895 14.3383 39.0374 14.1033 39.0374 13.8707C39.0374 13.5593 38.8751 13.3332 38.5124 13.3332C38.186 13.3332 37.7471 13.6506 37.5124 13.7999C34.4551 15.7488 21.0331 23.5714 15.0166 27.0707C14.0604 26.6794 7.41785 23.9604 5.16657 23.0416C5.18361 23.0341 5.178 23.0367 5.19574 23.0291C10.4178 20.7824 20.606 16.3938 29.6707 12.4957C34.2031 10.5467 38.4557 8.72086 41.6624 7.34572C44.8197 5.99175 47.0135 5.05992 47.2624 4.95822Z" fill="#FFEDBC"/>
</svg>
