<svg width="20" height="20" viewBox="0 0 20 20" fill="none" xmlns="http://www.w3.org/2000/svg">
<path d="M18.6667 4.62461C18.0287 4.90794 17.3433 5.09861 16.624 5.18461C17.3587 4.74461 17.922 4.04794 18.1873 3.21728C17.5007 3.62461 16.7393 3.92061 15.9287 4.08061C15.28 3.38928 14.356 2.95728 13.3333 2.95728C11.3693 2.95728 9.77734 4.54994 9.77734 6.51328C9.77734 6.79194 9.80934 7.06394 9.86934 7.32328C6.91401 7.17528 4.29401 5.75928 2.53934 3.60728C2.23401 4.13261 2.05867 4.74328 2.05867 5.39594C2.05867 6.62928 2.68601 7.71794 3.64001 8.35528C3.05734 8.33661 2.50867 8.17661 2.02934 7.91061C2.02934 7.92594 2.02934 7.93994 2.02934 7.95528C2.02934 9.67861 3.25467 11.1159 4.88201 11.4419C4.58401 11.5233 4.26934 11.5666 3.94467 11.5666C3.71601 11.5666 3.49267 11.5439 3.27601 11.5033C3.72867 12.9159 5.04201 13.9446 6.59801 13.9733C5.38134 14.9273 3.84801 15.4959 2.18134 15.4959C1.89467 15.4959 1.61134 15.4793 1.33267 15.4459C2.90667 16.4546 4.77534 17.0433 6.78401 17.0433C13.3253 17.0433 16.9013 11.6246 16.9013 6.92528C16.9013 6.77128 16.898 6.61794 16.8913 6.46528C17.5867 5.96328 18.19 5.33728 18.6667 4.62461Z" fill="white" fill-opacity="0.5"/>
</svg>
