<svg width="56" height="46" viewBox="0 0 56 46" fill="none" xmlns="http://www.w3.org/2000/svg">
<path d="M55.7335 5.79885C53.6919 6.70551 51.4988 7.31565 49.1969 7.59085C51.5479 6.18285 53.3505 3.95351 54.1996 1.29538C52.0023 2.59885 49.566 3.54605 46.9718 4.05805C44.8961 1.84578 41.9393 0.463379 38.6668 0.463379C32.382 0.463379 27.2876 5.55991 27.2876 11.8426C27.2876 12.7343 27.39 13.6047 27.582 14.4346C18.1249 13.961 9.74092 9.42978 4.12598 2.54338C3.14892 4.22445 2.58785 6.17858 2.58785 8.26711C2.58785 12.2138 4.59532 15.6975 7.64812 17.737C5.78358 17.6772 4.02785 17.1652 2.49398 16.314C2.49398 16.3631 2.49398 16.4079 2.49398 16.457C2.49398 21.9716 6.41505 26.5711 11.6225 27.6143C10.6689 27.8746 9.66198 28.0133 8.62305 28.0133C7.89131 28.0133 7.17665 27.9407 6.48332 27.8106C7.93185 32.3311 12.1345 35.6228 17.1137 35.7146C13.2204 38.7674 8.31372 40.5871 2.98038 40.5871C2.06305 40.5871 1.15638 40.5338 0.264648 40.4271C5.30145 43.6549 11.2812 45.5386 17.7089 45.5386C38.6412 45.5386 50.0844 28.1988 50.0844 13.161C50.0844 12.6682 50.0737 12.1775 50.0524 11.689C52.2774 10.0826 54.2081 8.07938 55.7335 5.79885Z" fill="white"/>
<path d="M55.7335 5.79885C53.6919 6.70551 51.4988 7.31565 49.1969 7.59085C51.5479 6.18285 53.3505 3.95351 54.1996 1.29538C52.0023 2.59885 49.566 3.54605 46.9718 4.05805C44.8961 1.84578 41.9393 0.463379 38.6668 0.463379C32.382 0.463379 27.2876 5.55991 27.2876 11.8426C27.2876 12.7343 27.39 13.6047 27.582 14.4346C18.1249 13.961 9.74092 9.42978 4.12598 2.54338C3.14892 4.22445 2.58785 6.17858 2.58785 8.26711C2.58785 12.2138 4.59532 15.6975 7.64812 17.737C5.78358 17.6772 4.02785 17.1652 2.49398 16.314C2.49398 16.3631 2.49398 16.4079 2.49398 16.457C2.49398 21.9716 6.41505 26.5711 11.6225 27.6143C10.6689 27.8746 9.66198 28.0133 8.62305 28.0133C7.89131 28.0133 7.17665 27.9407 6.48332 27.8106C7.93185 32.3311 12.1345 35.6228 17.1137 35.7146C13.2204 38.7674 8.31372 40.5871 2.98038 40.5871C2.06305 40.5871 1.15638 40.5338 0.264648 40.4271C5.30145 43.6549 11.2812 45.5386 17.7089 45.5386C38.6412 45.5386 50.0844 28.1988 50.0844 13.161C50.0844 12.6682 50.0737 12.1775 50.0524 11.689C52.2774 10.0826 54.2081 8.07938 55.7335 5.79885Z" fill="#FFEDBC"/>
</svg>
